<svg version="1.1" xmlns="http://www.w3.org/2000/svg" xmlns:xlink="http://www.w3.org/1999/xlink" width="512" height="512" viewBox="0,0,256,256"><g fill-opacity="0.52157" fill="#323232" fill-rule="nonzero" stroke="none" stroke-width="1" stroke-linecap="butt" stroke-linejoin="miter" stroke-miterlimit="10" stroke-dasharray="" stroke-dashoffset="0" font-family="none" font-weight="none" font-size="none" text-anchor="none" style="mix-blend-mode: normal"><g transform="scale(10.66667,10.66667)"><path d="M16,8c-0.3905,-0.39038 -1.0235,-0.39038 -1.414,0l-2.586,2.586l-2.586,-2.586c-0.39238,-0.37897 -1.01608,-0.37355 -1.40182,0.01218c-0.38573,0.38573 -0.39115,1.00944 -0.01218,1.40182l2.586,2.586l-2.586,2.586c-0.37897,0.39238 -0.37355,1.01608 0.01218,1.40182c0.38573,0.38573 1.00944,0.39115 1.40182,0.01218l2.586,-2.586l2.586,2.586c0.39238,0.37897 1.01608,0.37355 1.40182,-0.01218c0.38573,-0.38573 0.39115,-1.00944 0.01218,-1.40182l-2.586,-2.586l2.586,-2.586c0.39038,-0.3905 0.39038,-1.0235 0,-1.414z"></path><path d="M12,0c-6.62742,0 -12,5.37258 -12,12c0,6.62742 5.37258,12 12,12c6.62742,0 12,-5.37258 12,-12c-0.00716,-6.62445 -5.37555,-11.99284 -12,-12zM12,22c-5.52285,0 -10,-4.47715 -10,-10c0,-5.52285 4.47715,-10 10,-10c5.52285,0 10,4.47715 10,10c-0.00606,5.52033 -4.47967,9.99394 -10,10z"></path></g></g></svg>